<svg width="92" height="49" viewBox="0 0 92 49" fill="none" xmlns="http://www.w3.org/2000/svg">
<path d="M82.7649 29.4841C82.472 24.8179 80.4099 20.4386 76.9983 17.237C73.5866 14.0354 69.0816 12.2521 64.4 12.25C63.5387 12.25 62.6784 12.3094 61.8252 12.4279C59.8841 8.68926 56.9536 5.55377 53.3523 3.36256C49.7511 1.17134 45.6171 0.0083125 41.4 0C41.1634 0 40.9081 0.0015316 40.745 0.0153128C36.0998 0.132466 31.6003 1.65885 27.8448 4.39153C24.0893 7.12421 21.2557 10.9337 19.7207 15.3136C16.5058 15.3732 13.4426 16.6894 11.1888 18.9797C8.93499 21.2699 7.67044 24.3514 7.6667 27.5625C7.66694 28.0312 7.69444 28.4996 7.74904 28.9651C5.43351 30.106 3.48198 31.8685 2.11328 34.0549C0.74458 36.2413 0.0128147 38.7653 3.3392e-05 41.3437C-0.00534857 43.77 0.639942 46.1534 1.86886 48.2463C2.00422 48.4759 2.19727 48.6662 2.4289 48.7984C2.66054 48.9306 2.92273 49.0001 3.18952 49H20.4854C20.8506 49 21.2039 48.8698 21.4816 48.6328C21.7592 48.3958 21.9431 48.0676 22 47.7073C22.4425 44.9173 23.8673 42.3766 26.0182 40.5421C28.1691 38.7076 30.9049 37.6997 33.7335 37.6997C36.5621 37.6997 39.2979 38.7076 41.4488 40.5421C43.5997 42.3766 45.0245 44.9173 45.467 47.7073C45.5239 48.0676 45.7078 48.3958 45.9854 48.6328C46.2631 48.8698 46.6164 49 46.9817 49H88.535C88.7816 49.0001 89.0246 48.9407 89.2434 48.827C89.4621 48.7132 89.6501 48.5483 89.7914 48.3465C91.2324 46.2952 92.0038 43.8495 92 41.3437C91.9898 38.6256 91.078 35.9874 89.4071 33.8416C87.7362 31.6958 85.4004 30.1635 82.7649 29.4841Z" fill="#9CD5F2"/>
</svg>
