<svg width="56" height="32" viewBox="0 0 56 32" fill="none" xmlns="http://www.w3.org/2000/svg">
<path d="M46.1754 16.6933C46.1406 16.0654 46.0728 15.4396 45.9721 14.8183C45.2947 10.687 43.1121 6.92458 39.817 4.20812C36.522 1.49166 32.3308 -0.000542891 27.9975 1.48164e-07C23.6643 0.000543188 19.4735 1.4938 16.1792 4.21108C12.8849 6.92836 10.7033 10.6913 10.027 14.8228C9.927 15.4426 9.85947 16.0669 9.82464 16.6933C6.94747 17.6965 4.46054 19.5313 2.70251 21.9478C0.944485 24.3644 0.000812535 27.2453 0 30.1982C0 30.676 0.196666 31.1343 0.546734 31.4723C0.896802 31.8102 1.3716 32 1.86667 32H54.1333C54.6284 32 55.1032 31.8102 55.4533 31.4723C55.8033 31.1343 56 30.676 56 30.1982C55.9992 27.2453 55.0555 24.3644 53.2975 21.9478C51.5395 19.5313 49.0525 17.6965 46.1754 16.6933Z" fill="#B2EBF2"/>
</svg>
