<svg width="53" height="32" viewBox="0 0 53 32" fill="none" xmlns="http://www.w3.org/2000/svg">
<path d="M47.9235 18.531C47.9384 18.3318 47.9459 18.1335 47.946 17.9359C47.9453 15.8338 47.109 13.8109 45.6075 12.2792C44.106 10.7476 42.0522 9.82216 39.8641 9.69149C38.8008 7.00619 36.9571 4.66942 34.5513 2.95803C32.1456 1.24665 29.2786 0.232374 26.2901 0.0353823C23.3016 -0.161609 20.3169 0.466938 17.6895 1.84655C15.0621 3.22617 12.9023 5.29903 11.4658 7.81955C11.0045 7.76862 10.5405 7.74263 10.0762 7.7417C8.21822 7.73588 6.38208 8.12571 4.70032 8.88303C3.01856 9.64035 1.53314 10.7463 0.351294 12.121C0.159378 12.3445 0.0401774 12.6171 0.00850264 12.905C-0.0231721 13.1929 0.0340762 13.4834 0.173132 13.7404C0.312188 13.9974 0.526923 14.2095 0.790658 14.3505C1.05439 14.4914 1.3555 14.5549 1.65658 14.5332C1.81912 14.5216 1.99291 14.5224 2.15684 14.5231C6.00617 14.5308 9.77209 15.5992 13.0061 17.6011C16.2401 19.603 18.8058 22.454 20.3978 25.8145C20.5424 26.1203 20.7913 26.3696 21.1035 26.5216C21.4157 26.6736 21.7725 26.719 22.1152 26.6506C24.8121 26.1139 27.6096 26.279 30.2174 27.1287C32.8253 27.9785 35.1485 29.4818 36.946 31.4829C37.0907 31.6451 37.2702 31.7754 37.4724 31.8646C37.6745 31.9539 37.8944 32.0001 38.117 32H50.3656C50.6346 32 50.8989 31.9325 51.1322 31.8042C51.3656 31.6759 51.5598 31.4912 51.6956 31.2686C52.549 29.8676 52.9992 28.2745 53 26.652C52.9924 24.986 52.517 23.3527 51.6238 21.9237C50.7305 20.4947 49.4523 19.3227 47.9235 18.531Z" fill="#7CC9F2"/>
</svg>
