<svg width="97" height="97" viewBox="0 0 97 97" fill="none" xmlns="http://www.w3.org/2000/svg">
<path d="M43.1111 5.38885C43.1111 5.38885 43.1111 -4.00543e-05 48.5 -4.00543e-05C53.8889 -4.00543e-05 53.8889 5.38885 53.8889 5.38885V10.7777C53.8889 10.7777 53.8889 16.1666 48.5 16.1666C43.1111 16.1666 43.1111 10.7777 43.1111 10.7777V5.38885Z" fill="#FFAC33"/>
<path d="M91.6111 43.1111C91.6111 43.1111 97 43.1111 97 48.5C97 53.8889 91.6111 53.8889 91.6111 53.8889H86.2222C86.2222 53.8889 80.8333 53.8889 80.8333 48.5C80.8333 43.1111 86.2222 43.1111 86.2222 43.1111H91.6111Z" fill="#FFAC33"/>
<path d="M10.7778 43.1111C10.7778 43.1111 16.1667 43.1111 16.1667 48.5C16.1667 53.8889 10.7778 53.8889 10.7778 53.8889H5.38889C5.38889 53.8889 0 53.8889 0 48.5C0 43.1111 5.38889 43.1111 5.38889 43.1111H10.7778Z" fill="#FFAC33"/>
<path d="M24.576 19.6534C24.576 19.6534 28.386 23.4633 24.576 27.2732C20.7661 31.0832 16.9561 27.2732 16.9561 27.2732L13.1435 23.4633C13.1435 23.4633 9.33356 19.6534 13.1435 15.8407C16.9561 12.0308 20.7661 15.8407 20.7661 15.8407L24.576 19.6534Z" fill="#FFAC33"/>
<path d="M81.1594 76.2338C81.1594 76.2338 84.9693 80.0437 81.1594 83.8537C77.3494 87.6636 73.5395 83.8537 73.5395 83.8537L69.7295 80.0437C69.7295 80.0437 65.9196 76.2338 69.7295 72.4239C73.5395 68.6139 77.3494 72.4239 77.3494 72.4239L81.1594 76.2338Z" fill="#FFAC33"/>
<path d="M80.0465 27.2704C80.0465 27.2704 76.2366 31.0804 72.4267 27.2704C68.6167 23.4605 72.4267 19.6505 72.4267 19.6505L76.2366 15.8406C76.2366 15.8406 80.0466 12.0307 83.8565 15.8406C87.6664 19.6505 83.8565 23.4605 83.8565 23.4605L80.0465 27.2704Z" fill="#FFAC33"/>
<path d="M23.4632 83.8537C23.4632 83.8537 19.6533 87.6636 15.8433 83.8537C12.0334 80.0437 15.8433 76.2338 15.8433 76.2338L19.6533 72.4239C19.6533 72.4239 23.4632 68.6139 27.2732 72.4239C31.0831 76.2338 27.2732 80.0437 27.2732 80.0437L23.4632 83.8537Z" fill="#FFAC33"/>
<path d="M43.1111 86.2222C43.1111 86.2222 43.1111 80.8333 48.5 80.8333C53.8889 80.8333 53.8889 86.2222 53.8889 86.2222V91.6111C53.8889 91.6111 53.8889 97 48.5 97C43.1111 97 43.1111 91.6111 43.1111 91.6111V86.2222Z" fill="#FFAC33"/>
<path d="M75.4445 48.5C75.4445 33.6186 63.3787 21.5556 48.5 21.5556C33.6186 21.5556 21.5556 33.6186 21.5556 48.5C21.5556 63.3787 33.6186 75.4445 48.5 75.4445C63.3787 75.4445 75.4445 63.3787 75.4445 48.5Z" fill="#FFAC33"/>
</svg>
